<svg height="512pt" viewBox="0 -31 512 512" width="512pt" xmlns="http://www.w3.org/2000/svg"><path d="m271 120h30v30h-30zm0 0"/><path d="m136 240c-24.8125 0-45 20.1875-45 45s20.1875 45 45 45 45-20.1875 45-45-20.1875-45-45-45zm15 60h-30v-30h30zm0 0"/><path d="m211 390h90v60h-90zm0 0"/><path d="m331 120h30v30h-30zm0 0"/><path d="m121 30h270v60h90v-90h-450v90h90zm0 0"/><path d="m211 120h30v30h-30zm0 0"/><path d="m151 120h30v30h-30zm0 0"/><path d="m391 120v60h-270v-60h-121v330h181v-90h150v90h181v-330zm-255 240c-41.351562 0-75-33.648438-75-75s33.648438-75 75-75 75 33.648438 75 75-33.648438 75-75 75zm75-150h90v30h-90zm165 150c-41.351562 0-75-33.648438-75-75s33.648438-75 75-75 75 33.648438 75 75-33.648438 75-75 75zm0 0"/><path d="m376 240c-24.8125 0-45 20.1875-45 45s20.1875 45 45 45 45-20.1875 45-45-20.1875-45-45-45zm15 60h-30v-30h30zm0 0"/></svg>